<?xml version="1.0" encoding="UTF-8"?>
<svg version="1.1" xmlns="http://www.w3.org/2000/svg" width="512" height="512">
<path d="M0 0 C2.43750826 -0.00571072 4.87501384 -0.01267769 7.31251526 -0.02079773 C13.21722752 -0.03681675 19.12184131 -0.03884531 25.02656368 -0.03358483 C29.83206317 -0.02952391 34.63753138 -0.03100933 39.4430294 -0.03633308 C40.13006457 -0.03708151 40.81709973 -0.03782993 41.52495414 -0.03860103 C42.92120523 -0.0401327 44.31745633 -0.04167105 45.71370741 -0.043216 C58.7735429 -0.05690736 71.8333183 -0.05152732 84.89315238 -0.04003078 C96.80511232 -0.03010417 108.71691679 -0.04303514 120.62885276 -0.06696498 C132.90019883 -0.09142849 145.17147272 -0.10094597 157.44284266 -0.09431225 C164.31618216 -0.09083579 171.18940228 -0.09294707 178.06272316 -0.11056328 C184.52993027 -0.12693493 190.99691492 -0.12199145 197.46411705 -0.10325813 C199.82583437 -0.0995934 202.18757393 -0.10261827 204.54927063 -0.11314392 C233.12787815 -0.23070432 256.89499812 6.31458283 277.97729492 26.61889648 C287.53755989 36.28764673 294.45067741 47.18306267 299.04370117 59.96655273 C299.28620605 60.63823486 299.52871094 61.30991699 299.77856445 62.00195312 C304.00461369 74.42474591 304.0570891 86.6941413 304.06713867 99.66577148 C304.07357664 101.62628778 304.08030573 103.58680315 304.08731079 105.5473175 C304.09922881 109.63801299 304.10299685 113.72862434 304.10180664 117.81933594 C304.10160277 123.04793258 304.12899947 128.27598987 304.16335106 133.50445843 C304.18562697 137.54605064 304.18964411 141.58751262 304.18858719 145.62915993 C304.19093845 147.55679002 304.19973505 149.48442396 304.21525192 151.41199303 C304.23494362 154.10854125 304.22906361 156.80391948 304.21704102 159.50048828 C304.22828003 160.28666031 304.23951904 161.07283234 304.25109863 161.88282776 C304.17819655 168.34800854 302.21109791 173.47120682 298.02026367 178.42749023 C292.23580621 183.12566461 287.33522108 185.05957169 279.73120117 184.40405273 C274.13948491 182.94209638 268.91947343 180.76032534 265.65419006 175.75218201 C262.79797295 170.44794769 262.16664188 166.15944623 262.22729492 160.18920898 C262.21316307 158.90644325 262.21316307 158.90644325 262.19874573 157.59776306 C262.17029195 154.88711153 262.1670095 152.17734079 262.16870117 149.46655273 C262.16507399 146.75946447 262.15533097 144.05301164 262.12794495 141.34605408 C262.11137233 139.66983433 262.10810751 137.99340635 262.12095642 136.31715393 C262.06422046 129.93479459 261.09144275 123.44104605 257.08276367 118.28295898 C256.51299805 117.84854492 255.94323242 117.41413086 255.35620117 116.96655273 C254.7915918 116.5140918 254.22698242 116.06163086 253.64526367 115.59545898 C249.68982311 113.13339905 246.22149611 112.15421117 241.57803631 112.14678383 C240.55586315 112.14033494 239.53368999 112.13388604 238.48054188 112.12724173 C237.36440615 112.13033893 236.24827041 112.13343614 235.09831238 112.1366272 C233.90728749 112.13209608 232.7162626 112.12756497 231.48914605 112.12289655 C228.18655598 112.11242528 224.88418366 112.11092687 221.58159244 112.1132853 C218.0184243 112.1136935 214.45528863 112.10265407 210.89213562 112.09317017 C203.9123939 112.07655964 196.93268596 112.07106059 189.95292612 112.06994541 C184.27900491 112.06899494 178.60509483 112.06488471 172.93117714 112.05854416 C156.84267924 112.04093146 140.75420801 112.03170531 124.6657004 112.03320511 C123.36478954 112.03332498 123.36478954 112.03332498 122.03759766 112.03344727 C121.16926413 112.03352903 120.30093061 112.03361079 119.40628395 112.03369503 C105.33433225 112.03450789 91.2624876 112.01537015 77.19056686 111.98717053 C62.73976372 111.95844029 48.28901279 111.94463032 33.83818036 111.94635808 C25.72588252 111.94702195 17.6136969 111.94153134 9.50142479 111.92000198 C2.59425576 111.9017883 -4.31275018 111.89744431 -11.21993283 111.91102083 C-14.74301143 111.91754967 -18.26577718 111.91767117 -21.78882599 111.90031433 C-25.6110151 111.88167768 -29.43274774 111.89414049 -33.25495911 111.90957642 C-34.36440268 111.89928929 -35.47384625 111.88900216 -36.61690933 111.87840331 C-43.71989585 111.94183107 -49.34077039 112.93607213 -54.78778774 117.74513876 C-60.31410289 123.74176915 -60.55166544 130.86067045 -60.54223633 138.55639648 C-60.56252145 140.32007475 -60.58337216 142.08374658 -60.60473633 143.84741211 C-60.62731401 146.59673537 -60.64380787 149.34580313 -60.6496582 152.09521484 C-60.65923149 154.77023169 -60.69305475 157.44413251 -60.72973633 160.11889648 C-60.72469086 160.93059799 -60.71964539 161.7422995 -60.71444702 162.57859802 C-60.81181761 168.28749394 -62.10585205 172.61387687 -65.26879883 177.40405273 C-67.48754883 179.46264648 -67.48754883 179.46264648 -69.76879883 180.84155273 C-70.89801758 181.55118164 -70.89801758 181.55118164 -72.05004883 182.27514648 C-77.54869173 185.07287148 -83.38549668 185.18272548 -89.26879883 183.40405273 C-94.78992776 181.14833858 -98.67023425 176.54260016 -101.3409729 171.29899597 C-102.55675082 167.5056033 -102.5638714 163.89354407 -102.55932617 159.95214844 C-102.5660434 159.11226379 -102.57276062 158.27237915 -102.5796814 157.40704346 C-102.59866607 154.63124648 -102.60258768 151.85569187 -102.60473633 149.07983398 C-102.61117048 147.13469852 -102.61789929 145.18956402 -102.62490845 143.24443054 C-102.63688708 139.15983851 -102.64058932 135.07533101 -102.6394043 130.99072266 C-102.63920258 125.8055303 -102.66634854 120.62089515 -102.70094872 115.43583393 C-102.72342035 111.41098141 -102.72723549 107.38625787 -102.72618484 103.36134911 C-102.72851648 101.45314832 -102.73719918 99.54494261 -102.75284958 97.63680458 C-102.95887316 69.88978915 -95.67619504 46.53204766 -76.05395508 26.15795898 C-54.370005 4.71730708 -29.25253988 -0.06208922 0 0 Z " fill="#000000" transform="translate(155.268798828125,254.595947265625)"/>
<path d="M0 0 C1.14488128 -0.00445668 1.14488128 -0.00445668 2.31289148 -0.0090034 C4.84878313 -0.01761595 7.38462716 -0.0191923 9.92053223 -0.02069092 C11.74794616 -0.02532447 13.57535913 -0.03034985 15.402771 -0.03573608 C20.35362655 -0.04881262 25.30446856 -0.05529605 30.25533867 -0.05974674 C33.35510818 -0.06268589 36.45487405 -0.06679232 39.55464172 -0.07125092 C49.27228194 -0.08491498 58.98991377 -0.09458628 68.70756292 -0.09845281 C79.88899617 -0.10292732 91.0703068 -0.12045163 102.25170279 -0.1494534 C110.91786237 -0.17114338 119.58398764 -0.18116102 128.25017405 -0.18249393 C133.41497429 -0.18353696 138.57965911 -0.189337 143.74443054 -0.20731354 C148.6102063 -0.22392064 153.47578143 -0.22588909 158.34157562 -0.21717453 C160.11513053 -0.2164108 161.8886968 -0.22065781 163.66222382 -0.23063278 C187.51513684 -0.35678792 209.75935455 4.65825439 227.63342285 21.64434814 C242.81423921 37.59918639 250.07392367 57.14417028 250.21154785 79.07794189 C250.21724792 79.80231445 250.222948 80.52668701 250.2288208 81.27301025 C250.23819246 82.79228285 250.24477321 84.31157505 250.24865723 85.83087158 C250.25839961 88.13494486 250.28951096 90.43813811 250.32092285 92.74200439 C250.39531308 102.94272139 249.86494033 110.86810406 242.5982666 118.66778564 C237.6055456 123.29249282 231.62055211 124.30972834 225.00842285 124.14044189 C218.71910465 122.9363161 213.53320345 120.64340226 209.71472168 115.34552002 C204.80925919 106.98258751 205.35922799 98.59361531 205.44592285 89.20294189 C205.61547016 70.00823786 205.61547016 70.00823786 195.9342041 53.85919189 C188.89483868 47.57659395 181.68400459 44.83394096 172.23043823 44.86628723 C171.46607063 44.86105055 170.70170303 44.85581387 169.91417277 44.85041851 C167.36269088 44.83546295 164.81141034 44.83471433 162.2598877 44.83404541 C160.42627628 44.82642077 158.59266806 44.81799275 156.75906372 44.80882263 C151.78355916 44.78689692 146.80811606 44.77808095 141.83256865 44.77299619 C138.72043985 44.76934941 135.60832706 44.76310758 132.49620438 44.7559948 C121.62836248 44.73150403 110.76056827 44.71844984 99.8927002 44.71490479 C89.78048262 44.71127297 79.66856921 44.68140197 69.55644453 44.6395002 C60.86150529 44.60474082 52.16666655 44.58935534 43.47165835 44.58865875 C38.28452011 44.58786767 33.09769159 44.57920706 27.91062546 44.55066109 C23.02671714 44.52438464 18.14337318 44.52232852 13.25942612 44.53831673 C11.47451033 44.54012379 9.68956139 44.53350809 7.90471649 44.51749802 C-2.23612891 44.43213654 -11.00858601 44.72835235 -19.99157715 50.14044189 C-20.99862454 51.13334449 -22.000588 52.13151152 -22.99157715 53.14044189 C-23.65157715 53.14044189 -24.31157715 53.14044189 -24.99157715 53.14044189 C-25.26872559 53.69731689 -25.54587402 54.25419189 -25.8314209 54.82794189 C-26.62785336 56.41544363 -27.43302437 57.99858229 -28.2454834 59.57794189 C-28.67731934 60.42356689 -29.10915527 61.26919189 -29.55407715 62.14044189 C-29.98849121 62.98606689 -30.42290527 63.83169189 -30.8704834 64.70294189 C-33.06310856 69.47018267 -33.12495047 73.86265701 -33.13220215 79.05450439 C-33.15054243 80.6365499 -33.17011385 82.21858152 -33.1907959 83.80059814 C-33.21962622 86.27560754 -33.24157403 88.74972693 -33.24206543 91.22491455 C-33.26811743 109.78510234 -33.26811743 109.78510234 -38.99157715 117.14044189 C-44.18519494 121.99775165 -49.16684763 124.05193877 -56.28845215 124.30059814 C-63.51339561 123.87253069 -68.32840288 121.45106039 -73.48376465 116.44512939 C-78.67847409 108.50502947 -78.43017387 99.8089175 -78.32775879 90.64923096 C-78.3042712 88.40895087 -78.30720136 86.16987583 -78.31384277 83.92950439 C-78.26868381 60.49346101 -72.51214253 39.53750029 -55.99157715 22.14044189 C-40.63286833 7.33541694 -21.25486349 -0.02641252 0 0 Z " fill="#000000" transform="translate(169.9915771484375,72.85955810546875)"/>
<path d="M0 0 C1.1185437 -0.0071553 2.2370874 -0.01431061 3.38952637 -0.02168274 C4.61243378 -0.02437164 5.83534119 -0.02706055 7.0953064 -0.02983093 C8.38680603 -0.03640213 9.67830566 -0.04297333 11.00894165 -0.04974365 C15.28950771 -0.07074486 19.57007396 -0.08114435 23.85067749 -0.09111023 C25.32766106 -0.09515967 26.80464445 -0.09927664 28.28162766 -0.10346031 C35.22386665 -0.12250564 42.16609508 -0.1367364 49.10835516 -0.14507228 C57.10459184 -0.15483376 65.1005509 -0.1811273 73.09668982 -0.22157317 C79.28796064 -0.25180761 85.47915222 -0.26654819 91.67049539 -0.26985329 C95.363063 -0.272196 99.05533383 -0.28105355 102.74782181 -0.30631447 C106.87424208 -0.33408807 111.00004838 -0.32974178 115.1265564 -0.32279968 C116.33731842 -0.33560974 117.54808044 -0.3484198 118.79553223 -0.36161804 C127.67428704 -0.30732084 134.38381462 1.42951983 141.81161499 6.33467102 C148.44546293 13.27707002 150.68801685 20.38737164 150.74911499 29.83467102 C150.78005249 31.00159485 150.78005249 31.00159485 150.81161499 32.1920929 C150.86774583 40.60470292 148.53664168 47.1006769 142.64308167 53.18680763 C135.00355061 60.17211069 126.82379622 60.87559745 116.85458374 60.79414368 C115.5097333 60.80093399 114.16489218 60.809845 112.82006836 60.82069397 C109.19590206 60.84332696 105.57245403 60.83471841 101.94827652 60.81879854 C98.13862558 60.80605566 94.32903226 60.81790277 90.51937866 60.82572937 C84.12416653 60.83480172 77.729244 60.82290188 71.33407593 60.79902649 C63.96184293 60.77181956 56.59030154 60.78063546 49.21808529 60.80815852 C42.86527852 60.83091788 36.5126788 60.83401652 30.1598444 60.82096517 C26.37571454 60.81320793 22.59190876 60.81202522 18.80780029 60.82864761 C15.24842665 60.84319337 11.68993635 60.83288977 8.1306572 60.80417633 C6.21708102 60.79451446 4.30342928 60.80917923 2.38989258 60.82481384 C-6.24681493 60.71988027 -13.1380342 59.13639953 -19.64485168 53.18680763 C-26.09114183 46.52988645 -28.05966432 39.3104708 -27.93838501 30.20967102 C-27.93153687 29.41915344 -27.92468872 28.62863586 -27.91763306 27.81416321 C-27.7540423 21.87587994 -26.89080045 17.14283589 -23.50088501 12.14717102 C-22.77901001 11.07467102 -22.05713501 10.00217102 -21.31338501 8.89717102 C-15.17263634 2.89288344 -8.52517765 0.03750148 0 0 Z " fill="#000000" transform="translate(194.50088500976563,164.8528289794922)"/>
</svg>
